<svg width="255" height="26" viewBox="0 0 255 26" fill="none" xmlns="http://www.w3.org/2000/svg">
<path d="M70.0077 20.5705L75.8226 24.2625C76.5725 24.7356 77.4956 24.0318 77.2763 23.1665L75.5919 16.5439C75.5463 16.3603 75.5535 16.1676 75.6127 15.988C75.6719 15.8083 75.7807 15.6491 75.9264 15.5286L81.1414 11.1789C81.8222 10.6135 81.476 9.47133 80.5876 9.41364L73.7804 8.97521C73.5947 8.9644 73.4161 8.89973 73.2666 8.78908C73.117 8.67844 73.0029 8.52662 72.9382 8.35218L70.3999 1.96035C70.3327 1.77563 70.2103 1.61607 70.0493 1.50332C69.8883 1.39056 69.6966 1.33008 69.5 1.33008C69.3034 1.33008 69.1117 1.39056 68.9507 1.50332C68.7897 1.61607 68.6673 1.77563 68.6001 1.96035L66.0618 8.35218C65.9971 8.52662 65.883 8.67844 65.7334 8.78908C65.5839 8.89973 65.4053 8.9644 65.2196 8.97521L58.4124 9.41364C57.524 9.47133 57.1778 10.6135 57.8586 11.1789L63.0736 15.5286C63.2193 15.6491 63.3281 15.8083 63.3873 15.988C63.4465 16.1676 63.4537 16.3603 63.4081 16.5439L61.8506 22.6819C61.5852 23.7203 62.6928 24.5625 63.5812 23.9972L68.9923 20.5705C69.1441 20.474 69.3202 20.4228 69.5 20.4228C69.6798 20.4228 69.8559 20.474 70.0077 20.5705Z" fill="#F8D57E" stroke="#F8D57E" stroke-width="2" stroke-linecap="round" stroke-linejoin="round"/>
<path d="M99.0077 20.5705L104.823 24.2625C105.573 24.7356 106.496 24.0318 106.276 23.1665L104.592 16.5439C104.546 16.3603 104.554 16.1676 104.613 15.988C104.672 15.8083 104.781 15.6491 104.926 15.5286L110.141 11.1789C110.822 10.6135 110.476 9.47133 109.588 9.41364L102.78 8.97521C102.595 8.9644 102.416 8.89973 102.267 8.78908C102.117 8.67844 102.003 8.52662 101.938 8.35218L99.3999 1.96035C99.3327 1.77563 99.2103 1.61607 99.0493 1.50332C98.8883 1.39056 98.6966 1.33008 98.5 1.33008C98.3034 1.33008 98.1117 1.39056 97.9507 1.50332C97.7897 1.61607 97.6673 1.77563 97.6001 1.96035L95.0618 8.35218C94.9971 8.52662 94.883 8.67844 94.7334 8.78908C94.5839 8.89973 94.4053 8.9644 94.2196 8.97521L87.4124 9.41364C86.524 9.47133 86.1778 10.6135 86.8586 11.1789L92.0736 15.5286C92.2193 15.6491 92.3281 15.8083 92.3873 15.988C92.4465 16.1676 92.4537 16.3603 92.4081 16.5439L90.8506 22.6819C90.5852 23.7203 91.6928 24.5625 92.5812 23.9972L97.9923 20.5705C98.1441 20.474 98.3202 20.4228 98.5 20.4228C98.6798 20.4228 98.8559 20.474 99.0077 20.5705Z" fill="#F8D57E" stroke="#F8D57E" stroke-width="2" stroke-linecap="round" stroke-linejoin="round"/>
<path d="M128.008 20.5705L133.823 24.2625C134.573 24.7356 135.496 24.0318 135.276 23.1665L133.592 16.5439C133.546 16.3603 133.554 16.1676 133.613 15.988C133.672 15.8083 133.781 15.6491 133.926 15.5286L139.141 11.1789C139.822 10.6135 139.476 9.47133 138.588 9.41364L131.78 8.97521C131.595 8.9644 131.416 8.89973 131.267 8.78908C131.117 8.67844 131.003 8.52662 130.938 8.35218L128.4 1.96035C128.333 1.77563 128.21 1.61607 128.049 1.50332C127.888 1.39056 127.697 1.33008 127.5 1.33008C127.303 1.33008 127.112 1.39056 126.951 1.50332C126.79 1.61607 126.667 1.77563 126.6 1.96035L124.062 8.35218C123.997 8.52662 123.883 8.67844 123.733 8.78908C123.584 8.89973 123.405 8.9644 123.22 8.97521L116.412 9.41364C115.524 9.47133 115.178 10.6135 115.859 11.1789L121.074 15.5286C121.219 15.6491 121.328 15.8083 121.387 15.988C121.446 16.1676 121.454 16.3603 121.408 16.5439L119.851 22.6819C119.585 23.7203 120.693 24.5625 121.581 23.9972L126.992 20.5705C127.144 20.474 127.32 20.4228 127.5 20.4228C127.68 20.4228 127.856 20.474 128.008 20.5705Z" fill="#F8D57E" stroke="#F8D57E" stroke-width="2" stroke-linecap="round" stroke-linejoin="round"/>
<path d="M157.008 20.5705L162.823 24.2625C163.573 24.7356 164.496 24.0318 164.276 23.1665L162.592 16.5439C162.546 16.3603 162.554 16.1676 162.613 15.988C162.672 15.8083 162.781 15.6491 162.926 15.5286L168.141 11.1789C168.822 10.6135 168.476 9.47133 167.588 9.41364L160.78 8.97521C160.595 8.9644 160.416 8.89973 160.267 8.78908C160.117 8.67844 160.003 8.52662 159.938 8.35218L157.4 1.96035C157.333 1.77563 157.21 1.61607 157.049 1.50332C156.888 1.39056 156.697 1.33008 156.5 1.33008C156.303 1.33008 156.112 1.39056 155.951 1.50332C155.79 1.61607 155.667 1.77563 155.6 1.96035L153.062 8.35218C152.997 8.52662 152.883 8.67844 152.733 8.78908C152.584 8.89973 152.405 8.9644 152.22 8.97521L145.412 9.41364C144.524 9.47133 144.178 10.6135 144.859 11.1789L150.074 15.5286C150.219 15.6491 150.328 15.8083 150.387 15.988C150.446 16.1676 150.454 16.3603 150.408 16.5439L148.851 22.6819C148.585 23.7203 149.693 24.5625 150.581 23.9972L155.992 20.5705C156.144 20.474 156.32 20.4228 156.5 20.4228C156.68 20.4228 156.856 20.474 157.008 20.5705Z" fill="#F8D57E" stroke="#F8D57E" stroke-width="2" stroke-linecap="round" stroke-linejoin="round"/>
<path d="M186.008 20.5705L191.823 24.2625C192.573 24.7356 193.496 24.0318 193.276 23.1665L191.592 16.5439C191.546 16.3603 191.554 16.1676 191.613 15.988C191.672 15.8083 191.781 15.6491 191.926 15.5286L197.141 11.1789C197.822 10.6135 197.476 9.47133 196.588 9.41364L189.78 8.97521C189.595 8.9644 189.416 8.89973 189.267 8.78908C189.117 8.67844 189.003 8.52662 188.938 8.35218L186.4 1.96035C186.333 1.77563 186.21 1.61607 186.049 1.50332C185.888 1.39056 185.697 1.33008 185.5 1.33008C185.303 1.33008 185.112 1.39056 184.951 1.50332C184.79 1.61607 184.667 1.77563 184.6 1.96035L182.062 8.35218C181.997 8.52662 181.883 8.67844 181.733 8.78908C181.584 8.89973 181.405 8.9644 181.22 8.97521L174.412 9.41364C173.524 9.47133 173.178 10.6135 173.859 11.1789L179.074 15.5286C179.219 15.6491 179.328 15.8083 179.387 15.988C179.446 16.1676 179.454 16.3603 179.408 16.5439L177.851 22.6819C177.585 23.7203 178.693 24.5625 179.581 23.9972L184.992 20.5705C185.144 20.474 185.32 20.4228 185.5 20.4228C185.68 20.4228 185.856 20.474 186.008 20.5705V20.5705Z" stroke="#F8D57E" stroke-width="2" stroke-linecap="round" stroke-linejoin="round"/>
</svg>
